<?xml version="1.0" encoding="utf-8"?><!DOCTYPE svg PUBLIC "-//W3C//DTD SVG 1.1//EN" "http://www.w3.org/Graphics/SVG/1.1/DTD/svg11.dtd"><svg viewBox="0 0 64 64" xmlns="http://www.w3.org/2000/svg" xmlns:xlink="http://www.w3.org/1999/xlink"><style>:root>svg{display:none}:root>svg:target{display:block}</style><svg viewBox="0 0 64 64" id="call" xmlns="http://www.w3.org/2000/svg"><path fill="#29D331" d="M32 0c17.7 0 32 14.3 32 32S49.7 64 32 64 0 49.7 0 32 14.3 0 32 0z"/><path fill="#FFF" d="M14 20.9c-2.9 4.3.6 13.3 8.1 20.9s16.6 11 20.9 8.1c.2-.1.3-.2.4-.3l2.9-2.9c.9-.9.8-2.4-.2-3.5l-5.1-5c-1-1-2.6-1.1-3.5-.2l-3.4 3.4c-.3.3-.9.4-1.3.1-1.9-1.3-3.7-2.8-5.5-4.6-1.8-1.8-3.3-3.7-4.6-5.5-.3-.4-.3-1 .1-1.3l3.4-3.4c.9-.9.8-2.4-.2-3.5L20.8 18c-1-1-2.6-1.1-3.5-.2l-2.9 2.9c-.2-.1-.3.1-.4.2zM41.1 31.9h-3c0-3.9-3.2-7-7-7v-3c5.5 0 10 4.5 10 10z"/><path fill="#FFF" d="M47.5 33h-3c0-8-6.5-14.5-14.5-14.5v-3c9.6 0 17.5 7.9 17.5 17.5z"/></svg><svg fill="none" viewBox="0 0 48 48" id="watsupp" xmlns="http://www.w3.org/2000/svg"><path d="M24 48c13.255 0 24-10.745 24-24S37.255 0 24 0 0 10.745 0 24s10.745 24 24 24z" fill="#25D366"/><path fill-rule="evenodd" clip-rule="evenodd" d="M24.791 37.353h-.006c-2.388-.001-4.735-.6-6.82-1.738L10.4 37.6l2.025-7.395a14.246 14.246 0 01-1.905-7.135c.003-7.868 6.405-14.27 14.27-14.27 3.819.002 7.402 1.488 10.096 4.185a14.185 14.185 0 014.176 10.097c-.003 7.866-6.402 14.267-14.27 14.27zm-6.475-4.321l.433.257a11.844 11.844 0 006.037 1.653h.005c6.538 0 11.859-5.32 11.862-11.861a11.79 11.79 0 00-3.471-8.392 11.78 11.78 0 00-8.386-3.479c-6.543 0-11.864 5.321-11.867 11.861 0 2.241.626 4.424 1.814 6.313l.282.448-1.199 4.378 4.49-1.178zm13.176-6.878c.25.12.417.201.489.321.089.149.089.863-.208 1.696s-1.722 1.593-2.407 1.695c-.614.092-1.392.13-2.246-.14a20.465 20.465 0 01-2.033-.752c-3.343-1.444-5.602-4.684-6.029-5.296-.03-.043-.05-.073-.063-.088l-.002-.004c-.189-.252-1.453-1.94-1.453-3.685 0-1.643.806-2.504 1.178-2.9l.07-.075a1.31 1.31 0 01.95-.446c.238 0 .476.002.684.012.026.002.052.002.08.001.207 0 .467-.002.722.612.099.236.242.586.394.956.307.747.646 1.572.706 1.691.089.179.148.387.03.625l-.05.102c-.09.182-.156.316-.307.493-.06.07-.121.144-.183.22-.123.149-.245.298-.352.405-.179.177-.364.37-.157.727.209.357.924 1.525 1.984 2.47 1.14 1.017 2.13 1.447 2.632 1.664.098.043.178.077.236.106.356.179.564.15.772-.089.208-.238.892-1.041 1.13-1.398.237-.357.475-.297.802-.179.327.12 2.08.982 2.436 1.16l.195.096z" fill="#FDFDFD"/></svg></svg>