<?xml version="1.0" encoding="utf-8"?><!DOCTYPE svg PUBLIC "-//W3C//DTD SVG 1.1//EN" "http://www.w3.org/Graphics/SVG/1.1/DTD/svg11.dtd"><svg viewBox="0 0 1706.667 1706.667" xmlns="http://www.w3.org/2000/svg" xmlns:xlink="http://www.w3.org/1999/xlink"><style>:root>svg{display:none}:root>svg:target{display:block}</style><svg viewBox="0 0 64 64" id="call" xmlns="http://www.w3.org/2000/svg"><path fill="#29D331" d="M32 0c17.7 0 32 14.3 32 32S49.7 64 32 64 0 49.7 0 32 14.3 0 32 0z"/><path fill="#FFF" d="M14 20.9c-2.9 4.3.6 13.3 8.1 20.9s16.6 11 20.9 8.1c.2-.1.3-.2.4-.3l2.9-2.9c.9-.9.8-2.4-.2-3.5l-5.1-5c-1-1-2.6-1.1-3.5-.2l-3.4 3.4c-.3.3-.9.4-1.3.1-1.9-1.3-3.7-2.8-5.5-4.6-1.8-1.8-3.3-3.7-4.6-5.5-.3-.4-.3-1 .1-1.3l3.4-3.4c.9-.9.8-2.4-.2-3.5L20.8 18c-1-1-2.6-1.1-3.5-.2l-2.9 2.9c-.2-.1-.3.1-.4.2zM41.1 31.9h-3c0-3.9-3.2-7-7-7v-3c5.5 0 10 4.5 10 10z"/><path fill="#FFF" d="M47.5 33h-3c0-8-6.5-14.5-14.5-14.5v-3c9.6 0 17.5 7.9 17.5 17.5z"/></svg><svg version="1.0" viewBox="0 0 1280 710" id="clothe" xmlns="http://www.w3.org/2000/svg"><path d="M135.5 120.5c-30.8 13.4-57.8 25.5-60 26.9-16.2 10.1-27.9 32.3-70.4 133.1l-5.1 12 3.8 3.3c15.4 13.5 41.5 25.1 69.3 30.8C85.2 329 87 329 87 326.5c0-.7 1.8-6.6 4-13.1l4-11.8v-25.1c0-32.5-2.5-64.2-8.1-103.2-1.2-7.9-1.9-14.9-1.7-15.5.5-1.4 7.9 44 10.2 62.2 3.6 27.9 5.6 54.9 5.6 74.8 0 12 .2 13.7 2.4 18 3.3 6.6 8.4 21.2 10.7 31 4.3 18 6.2 46.5 3.8 57.2-.5 2.5-1.2 12.8-1.4 23-.2 10.7-1.2 24.8-2.4 33.5-1.1 8.2-3.6 27.1-5.6 42-2 14.8-5.4 39.2-7.6 54.1-4.4 30.5-4.6 33-2.3 36.3 5.4 7.6 44.6 16.9 91.4 21.7 21.2 2.1 85.7 3 111.6 1.5 52.5-3.1 100.8-12.2 113.5-21.2 4.9-3.5 5-5.8.8-38.4-4.3-33.5-9.2-80.8-11.4-111-.9-11-2.2-27-3-35.5-1.8-19.3-.6-50.8 2.6-66.5 2.6-12.4 7.6-28.5 9.3-29.9 1-.8 1.5-6.1 2-20.1.9-31.7 5.1-66.5 13.7-115.5 6.2-35.2 6.4-32.3.5 8-5.8 39.9-7.7 60.6-8.3 92.5-.3 15.9-.9 29.5-1.4 30.1-.5.7 2.2 6.5 7.3 15.3l8.2 14.3 8-.7c23.1-1.9 42.4-8.7 61.3-21.5 12.7-8.6 15.6-11.2 15.6-14.2 0-3.4-54.7-124.5-59.9-132.6-5.3-8.2-14.7-17.8-21.8-22.1-5.9-3.6-30-13-60.6-23.7-14.7-5.2-21.5-8.2-33.1-14.8-8.1-4.6-15.6-8.7-16.7-9-1.8-.6-2.7.5-6.3 7.4-10.5 20.3-30.8 34.4-54.6 38.1-7.3 1.1-8.9 1-17.4-1-11.7-2.7-23.7-7.5-31.1-12.5-8.5-5.6-17.9-16.2-22.2-25.1-2-4.1-4-7.5-4.4-7.4-.4 0-25.9 11-56.7 24.4zm-50.8 34.2c-.3 1-.5.4-.5-1.2 0-1.7.2-2.4.5-1.8.2.7.2 2.1 0 3zM695.2 120.9c-31.5 13.7-59.1 26.2-61.3 27.7-2.3 1.6-6 5-8.3 7.7-6.6 7.5-22 35.8-32.8 60-7.3 16.5-31.8 75-31.8 75.9 0 2.6 18.2 15.1 30.3 20.8 11.5 5.4 26.4 10.2 42 13.5 7.1 1.5 12.9 2.6 13.1 2.4.1-.2 2.2-6.4 4.5-13.8 4-12.5 4.3-14.3 4.8-28 1-25.3-2.5-72-8.2-113.1-1.4-9.6-2.4-17.9-2.4-18.5.3-2 2.9 12.3 6.3 34.5 6.2 39.7 8.2 59.1 9.6 94l1 24.5 4.1 9.5c4.8 11.3 10.3 31.7 11.9 45 .7 5.9 1 15.5.6 25-1.8 50.4-2.4 59.2-5.9 84-2 14-4.6 32.7-5.7 41.5-1.1 8.8-3.9 28.3-6.1 43.4-2.2 15-3.8 28.4-3.4 29.8 1 4.3 5.4 7.2 16.4 10.7 20.1 6.5 43.7 10.8 77.6 14.3 21.6 2.3 103.8 2.6 126 .5 52.6-4.9 91.8-13.5 99.6-21.8 3.2-3.4 3-8.5-1.5-42.9-3.9-29.8-9.7-88-12.1-122-.9-12.1-2-24.9-2.4-28.5-.4-3.6-.4-9.9 0-14s.8-12.8.8-19.2c.1-8.5.8-14.8 2.6-23.5 3-13.7 7.1-27.1 8.9-29.3.9-1 1.7-8.6 2.5-24.6 1.8-35.6 6.8-75.7 15.1-118.9 3.7-19.8 3.7-16.5 0 8.6-6.9 45.9-10.8 91.9-9.7 114.8.5 10 .3 12.8-.9 14.6-.9 1.3-1.1 2.6-.6 2.9.5.3 4.3 6.5 8.3 13.7l7.4 13 7.5-.6c24.5-2 45.8-9.6 64.9-23.3 9.8-6.9 13.1-10.1 13.1-12.4 0-2.2-53.7-121.6-58.1-129.3-6.9-12.2-17.5-22.5-28.3-27.8-6.2-3-28.3-11.4-53.6-20.4-18.8-6.6-26.4-10.1-43-19.8-5.2-3-10.1-5.5-10.8-5.5-.8 0-4.7 1.8-8.6 3.9-20 11.1-30.4 13.4-60.6 13.5-19.7 0-23.8-.3-33-2.2-5.8-1.3-12.9-3.2-15.9-4.3-6.1-2.2-13.6-7.1-14.4-9.4-.4-.8-1-1.5-1.4-1.5-.4 0-26.6 11.2-58.1 24.9zm299.5 30.3c-.3.8-.6.5-.6-.6-.1-1.1.2-1.7.5-1.3.3.3.4 1.2.1 1.9z"/></svg><svg version="1.0" viewBox="0 0 1054 1280" id="shirt" xmlns="http://www.w3.org/2000/svg"><path d="M386 .6c-1.4.2-5.9.9-10 1.5-13.8 2.1-18.8 6-29.1 22.6-8 13-19.2 35.8-22.2 44.8-5.6 17.4-4.7 20.8 6.5 25 17.6 6.6 20.4 8.4 17.7 11-.8.8-5.9 2.1-11.4 3-14.7 2.3-27.6 6-37.4 10.6-8.1 3.8-9 4-15.2 3.5-7.5-.7-11.5.4-17.3 4.6-5.1 3.6-11.4 5.5-21.8 6.3-11.6.9-15.7 2.1-17 4.9-1.2 2.9-4.7 4.6-9.2 4.6-4.2 0-9.1 1.7-13.6 4.6-1.9 1.3-6.9 3-11 3.9-10.7 2.2-24.3 6.3-32.4 9.7-3.8 1.6-10.1 3.6-14 4.4-3.9.9-9 2.6-11.3 4-7 4.1-19.3 14.1-29.6 24.3-8.4 8.2-10.5 10.9-14.6 19.2-2.7 5.3-12.5 22.8-21.8 39-21.8 37.8-26.9 47.1-39.1 71.4-17 34-27.4 60-30.8 76.7-4.2 20.7 4.4 50.9 18.2 63.7 6.5 6 6.6 7.4 2.9 22.6-3.3 13.3-3.3 19.1.1 24.1 8.3 12.5 26.6 25 63.4 43.4 29 14.5 43.1 23.2 56.5 34.9 4.4 3.9 9.6 7.9 11.6 9.1l3.7 2 5.3-4.3c3-2.4 11.1-10.5 18.1-18 9.3-10 12.8-13.1 13.2-11.9.3.9 1.9 7.5 3.6 14.5 5.2 21.3 13.5 42.7 27.8 71.2 13.1 26.3 22.2 40.9 34.3 54.9 7.7 9 9.5 14.8 10.9 34.4 1 15.6 2.7 23.6 6.2 30.5 3 5.9 3.4 21.9 1.4 52.7-.9 13.5-2.3 36-3.1 50-2.4 40.7-4.1 51.7-9.4 59.6-1.6 2.5-3.5 7.1-4.2 10.2-1.6 7.9-6.2 19.7-15.9 40.1-11.7 24.9-28.6 63.8-33.2 76.6-5 14-9.1 31.1-11.8 49.2-2.3 16-4.9 26.7-8.6 35.7-3.7 9.1-5.4 16.6-6.4 28.3-1.2 13.4-2.4 17.1-5.7 17.9-6.1 1.6-4.5 11.7 2.8 17.5 3.9 3.1 7 8 8.2 13 1.5 5.9 6.9 10 18.7 14.1 7.6 2.6 12.7 6.2 14.3 10.1 1 2.2 3 4.1 6.3 5.9 13.9 7.5 43 14.8 59.4 14.8 8 0 8.9-.2 11.5-2.6 3-2.8 4.2-2.7 15 .6 12.5 3.9 17.1 4.3 62 4.5 46 .2 54 .7 59 3.4 2.5 1.3 5.8 1.5 20.5 1.2 39.3-1 45.1-.8 50 1.6 11.7 5.7 73.9 5.6 105.9-.3 16.6-3 32.8-9.7 45.8-18.8 4.4-3.1 8.3-5.6 8.6-5.6.3 0 3.4 3.5 7 7.8 8.8 10.7 11.1 11.7 24.6 10.8 13.7-.8 27-3.8 35-7.8 5.2-2.6 7.7-3.3 12.6-3.3 5.3 0 7-.5 11.6-3.4 12.4-7.8 13.8-8.4 21.4-8.6 8.6-.3 14.8-2.2 27-8.2 18.1-9 31.6-19.3 38.9-29.7 6-8.6 8.8-15.8 9.4-24.3.4-6.4.2-7.8-2.2-12.2-3-5.8-5.8-15.7-8.1-28.6-3-17-6.4-23.4-14.6-27.5-10.8-5.6-14.5-16.2-23.4-67-6.8-39.1-9.1-47.7-20.4-76.3-16.9-42.9-18.8-50.8-20.1-80.2-.9-21.6-2.1-29-5.2-34.5-4-7-4.9-14.8-5.8-55-.5-21.2-.9-43.7-.9-50.1l-.1-11.5 12.1-10.4c18.3-15.8 30-31.5 42.1-56.7 10.8-22.6 16.2-40 20.9-67.1 4.9-28.8 7.2-34.2 14.3-34.2 5.2 0 11.9 5.1 31 23.9 10 9.7 19.5 18.6 21.2 19.8 6.1 4.3 7.5 4.1 19.2-3 5.9-3.5 20.2-11.5 31.7-17.7 55-29.5 100.4-57.4 105.1-64.5 2.5-3.8 1.3-7.3-8.5-25.3-11.4-20.8-12.8-24.2-11.1-28.2.7-1.6 1.6-3 2.1-3s2.1-1.9 3.6-4.2c2.4-3.5 2.8-5.2 2.8-10.7v-6.6h3.5c3.1 0 3.5-.3 3.8-2.7 1.9-16.5-29.6-97.7-63.3-163.3-14.2-27.7-23.9-48.7-27.2-58.8-3.3-10.3-9.9-19.9-23.1-33.8-16-16.8-20-19-37.4-20.9-26.5-2.9-100.7-26-162.7-50.7-18.6-7.4-22.2-8.6-28.7-8.9-6.8-.3-25.1-3.6-29.7-5.3-1.2-.5 1.3-1.3 7.6-2.5 19.6-3.7 20.6-7 12.6-42.4-5.3-23.4-10.4-35.2-19.3-44.9-8.1-8.9-14.8-12-33.1-15.2l-10-1.8-.6 32.6c-.4 17.9-1.2 36.2-1.9 40.6-2.6 17.4-7.1 25.8-18.3 34.2-8.4 6.4-14.7 13-22.6 23.8-21.4 29-46.9 74-77.6 136.8-8.8 18-16.2 32.7-16.5 32.7-1.4-.1-28.5-87.1-29.9-95.7-3.6-23.1-27.4-70.3-46.9-92.8-9.7-11.3-17-22.4-19.9-30.5-3.8-10.7-3.7-24.8.5-50.5 3.3-19.9 4.2-30.2 2.9-32.3-.8-1.1-11.3-1.5-17.7-.6z"/></svg><svg fill="none" viewBox="0 0 48 48" id="watsupp" xmlns="http://www.w3.org/2000/svg"><path d="M24 48c13.255 0 24-10.745 24-24S37.255 0 24 0 0 10.745 0 24s10.745 24 24 24z" fill="#25D366"/><path fill-rule="evenodd" clip-rule="evenodd" d="M24.791 37.353h-.006c-2.388-.001-4.735-.6-6.82-1.738L10.4 37.6l2.025-7.395a14.246 14.246 0 01-1.905-7.135c.003-7.868 6.405-14.27 14.27-14.27 3.819.002 7.402 1.488 10.096 4.185a14.185 14.185 0 014.176 10.097c-.003 7.866-6.402 14.267-14.27 14.27zm-6.475-4.321l.433.257a11.844 11.844 0 006.037 1.653h.005c6.538 0 11.859-5.32 11.862-11.861a11.79 11.79 0 00-3.471-8.392 11.78 11.78 0 00-8.386-3.479c-6.543 0-11.864 5.321-11.867 11.861 0 2.241.626 4.424 1.814 6.313l.282.448-1.199 4.378 4.49-1.178zm13.176-6.878c.25.12.417.201.489.321.089.149.089.863-.208 1.696s-1.722 1.593-2.407 1.695c-.614.092-1.392.13-2.246-.14a20.465 20.465 0 01-2.033-.752c-3.343-1.444-5.602-4.684-6.029-5.296-.03-.043-.05-.073-.063-.088l-.002-.004c-.189-.252-1.453-1.94-1.453-3.685 0-1.643.806-2.504 1.178-2.9l.07-.075a1.31 1.31 0 01.95-.446c.238 0 .476.002.684.012.026.002.052.002.08.001.207 0 .467-.002.722.612.099.236.242.586.394.956.307.747.646 1.572.706 1.691.089.179.148.387.03.625l-.05.102c-.09.182-.156.316-.307.493-.06.07-.121.144-.183.22-.123.149-.245.298-.352.405-.179.177-.364.37-.157.727.209.357.924 1.525 1.984 2.47 1.14 1.017 2.13 1.447 2.632 1.664.098.043.178.077.236.106.356.179.564.15.772-.089.208-.238.892-1.041 1.13-1.398.237-.357.475-.297.802-.179.327.12 2.08.982 2.436 1.16l.195.096z" fill="#FDFDFD"/></svg></svg>